<svg xmlns="http://www.w3.org/2000/svg" width="24" height="26" viewBox="0 0 24 26" fill="none">
  <path d="M12.0476 1C13.0996 1 13.9524 1.85279 13.9524 2.90476C13.9524 3.75758 13.3919 4.4795 12.6192 4.72227L12.6192 7.11254C15.6908 7.29906 18.3611 8.97873 19.9221 11.4387L19.8914 11.4265C21.6562 12.1236 22.9048 13.8446 22.9048 15.8571V17.1905C22.9048 19.3207 21.506 21.1243 19.5768 21.7327L19.5051 21.7547L19.5618 21.7374C17.891 23.7787 15.2006 25 12.0476 25C8.93105 25 6.26642 23.8067 4.59173 21.8078L4.61222 21.8127C2.53771 21.2984 1 19.424 1 17.1905V15.8571C1 13.7574 2.35897 11.9751 4.24534 11.3418L4.23283 11.346C5.80151 8.93658 8.4433 7.29664 11.4762 7.11253L11.4762 4.72233C10.7034 4.47962 10.1429 3.75765 10.1429 2.90476C10.1429 1.85279 10.9956 1 12.0476 1ZM17.7452 21.9525L6.34991 21.9524L6.42909 22.0178C7.86583 23.1859 9.81567 23.8571 12.0476 23.8571C14.3208 23.8571 16.3014 23.1609 17.7452 21.9525ZM18.1429 12.2381H5.7619C3.76316 12.2381 2.14286 13.8584 2.14286 15.8571V17.1905C2.14286 19.1892 3.76316 20.8095 5.7619 20.8095H18.1429C20.1416 20.8095 21.7619 19.1892 21.7619 17.1905V15.8571C21.7619 13.8584 20.1416 12.2381 18.1429 12.2381ZM12.0476 8.2381C9.56949 8.2381 7.34806 9.34536 5.84602 11.0951L5.7619 11.0952H18.1429C18.1835 11.0952 18.2241 11.0957 18.2645 11.0968L18.2503 11.0964C16.7483 9.34592 14.5264 8.2381 12.0476 8.2381ZM12.0476 2.14286C11.6268 2.14286 11.2857 2.48397 11.2857 2.90476C11.2857 3.32555 11.6268 3.66667 12.0476 3.66667C12.4684 3.66667 12.8095 3.32555 12.8095 2.90476C12.8095 2.48397 12.4684 2.14286 12.0476 2.14286Z" fill="#344054" stroke="#344054" stroke-width="0.796753"/>
  <mask id="path-2-inside-1_1021_7578" fill="white">
    <path d="M8.33309 14.793C8.64868 14.793 8.90451 15.0488 8.90451 15.3644V17.8466C8.90451 18.1621 8.64868 18.418 8.33309 18.418C8.0175 18.418 7.76166 18.1621 7.76166 17.8466V15.3644C7.76166 15.0488 8.0175 14.793 8.33309 14.793ZM15.3807 14.793C15.6963 14.793 15.9521 15.0488 15.9521 15.3644V17.8466C15.9521 18.1621 15.6963 18.418 15.3807 18.418C15.0651 18.418 14.8093 18.1621 14.8093 17.8466V15.3644C14.8093 15.0488 15.0651 14.793 15.3807 14.793Z"/>
  </mask>
  <path d="M8.33309 14.793C8.64868 14.793 8.90451 15.0488 8.90451 15.3644V17.8466C8.90451 18.1621 8.64868 18.418 8.33309 18.418C8.0175 18.418 7.76166 18.1621 7.76166 17.8466V15.3644C7.76166 15.0488 8.0175 14.793 8.33309 14.793ZM15.3807 14.793C15.6963 14.793 15.9521 15.0488 15.9521 15.3644V17.8466C15.9521 18.1621 15.6963 18.418 15.3807 18.418C15.0651 18.418 14.8093 18.1621 14.8093 17.8466V15.3644C14.8093 15.0488 15.0651 14.793 15.3807 14.793Z" fill="#00934B"/>
  <path d="M8.33309 16.0324C7.96418 16.0324 7.66512 15.7333 7.66512 15.3644H10.1439C10.1439 14.3643 9.33318 13.5536 8.33309 13.5536V16.0324ZM7.66512 15.3644V17.8466H10.1439V15.3644H7.66512ZM7.66512 17.8466C7.66512 17.4776 7.96418 17.1786 8.33309 17.1786V19.6574C9.33318 19.6574 10.1439 18.8466 10.1439 17.8466H7.66512ZM8.33309 17.1786C8.70199 17.1786 9.00105 17.4776 9.00105 17.8466H6.52226C6.52226 18.8466 7.333 19.6574 8.33309 19.6574V17.1786ZM9.00105 17.8466V15.3644H6.52226V17.8466H9.00105ZM9.00105 15.3644C9.00105 15.7333 8.70199 16.0324 8.33309 16.0324V13.5536C7.333 13.5536 6.52226 14.3643 6.52226 15.3644H9.00105ZM15.3807 16.0324C15.0118 16.0324 14.7127 15.7333 14.7127 15.3644H17.1915C17.1915 14.3643 16.3808 13.5536 15.3807 13.5536V16.0324ZM14.7127 15.3644V17.8466H17.1915V15.3644H14.7127ZM14.7127 17.8466C14.7127 17.4776 15.0118 17.1786 15.3807 17.1786V19.6574C16.3808 19.6574 17.1915 18.8466 17.1915 17.8466H14.7127ZM15.3807 17.1786C15.7496 17.1786 16.0487 17.4776 16.0487 17.8466H13.5699C13.5699 18.8466 14.3806 19.6574 15.3807 19.6574V17.1786ZM16.0487 17.8466V15.3644H13.5699V17.8466H16.0487ZM16.0487 15.3644C16.0487 15.7333 15.7496 16.0324 15.3807 16.0324V13.5536C14.3806 13.5536 13.5699 14.3643 13.5699 15.3644H16.0487Z" fill="#00934B" mask="url(#path-2-inside-1_1021_7578)"/>
</svg>
