<svg xmlns="http://www.w3.org/2000/svg" width="41" height="40" fill="none"><g clip-path="url(#a)"><g stroke-linecap="round" stroke-linejoin="round" clip-path="url(#b)"><path stroke="#344054" stroke-width="3.2" d="M11.467 36.667a5.2 5.2 0 1 0 0-10.4 5.2 5.2 0 0 0 0 10.4Z"/><path stroke="#344054" stroke-width="3.2" d="M35.733 28V7.667c0-4.334-2.716-4.934-5.466-4.184l-10.4 2.834c-1.9.516-3.2 2.016-3.2 4.183v20.95"/><path stroke="#344054" stroke-width="3.2" d="M30.533 33.2a5.2 5.2 0 1 0 0-10.4 5.2 5.2 0 0 0 0 10.4Z"/><path stroke="#00934B" stroke-width="1.5" d="m16.667 15.867 19.066-5.2"/></g></g><defs><clipPath id="a"><path fill="#fff" d="M.5 0h40v40H.5z"/></clipPath><clipPath id="b"><path fill="#fff" d="M.5 0h40v40H.5z"/></clipPath></defs></svg>