<svg xmlns="http://www.w3.org/2000/svg" width="41" height="40" fill="none"><g clip-path="url(#a)"><g stroke-linecap="round" stroke-linejoin="round" stroke-width="3.2" clip-path="url(#b)"><path stroke="#344054" d="M16 36.667h10c8.333 0 11.667-3.334 11.667-11.667V15c0-8.333-3.334-11.667-11.667-11.667H16C7.667 3.333 4.333 6.667 4.333 15v10c0 8.333 3.334 11.667 11.667 11.667Z"/><path stroke="#344054" d="M16 16.667A3.333 3.333 0 1 0 16 10a3.333 3.333 0 0 0 0 6.667Z"/><path stroke="#33A96F" d="m5.45 31.583 8.217-5.516c1.316-.884 3.216-.784 4.4.233l.55.483c1.3 1.117 3.4 1.117 4.7 0l6.933-5.95c1.3-1.116 3.4-1.116 4.7 0l2.717 2.334"/></g></g><defs><clipPath id="a"><path fill="#fff" d="M.5 0h40v40H.5z"/></clipPath><clipPath id="b"><path fill="#fff" d="M.5 0h40v40H.5z"/></clipPath></defs></svg>