<svg width="240" height="49" viewBox="0 0 240 49" fill="none" xmlns="http://www.w3.org/2000/svg">
<g clip-path="url(#clip0_293_18855)">
<path d="M6.03241 15.5545L6.17179 15.6102L7.48197 16.1956L8.93154 16.8368C10.5484 13.408 13.3081 10.5368 16.9599 8.80844L16.3187 7.35887L15.3988 5.24028C14.3674 3.17744 12.4997 3.87435 11.8307 4.20886C8.87578 6.04869 6.42268 8.47392 4.58285 11.2894C4.55497 11.3173 4.55497 11.3452 4.55497 11.4009C3.38417 14.1328 5.44701 15.2757 6.03241 15.5545Z" fill="#00934B"/>
<path d="M8.9595 16.8089L11.3011 17.8403L13.3361 18.7323L14.9529 19.4571C15.9285 17.4779 17.5454 15.8053 19.6361 14.7739L18.9113 13.1571L18.0193 11.1221L16.9878 8.78052C13.3361 10.5088 10.5763 13.408 8.9595 16.8089Z" fill="#22D511"/>
<path d="M14.925 19.4573L18.298 20.9347L21.4201 22.3007C21.8383 22.2728 22.2007 21.994 22.3679 21.6038C22.4237 21.4644 22.4515 21.3529 22.4515 21.2135L21.0856 18.1192L19.6082 14.7462C17.5174 15.8055 15.9006 17.4781 14.925 19.4573Z" fill="#BEF000"/>
<path d="M48.5437 19.6522C47.4565 16.9482 45.2264 17.5615 44.6131 17.8124L44.4459 17.8681L43.0799 18.3978L41.6025 18.9832C42.9684 22.7744 42.8848 26.7885 41.6025 30.3567L43.0799 30.9421L44.9755 31.6669C47.1777 32.5868 48.0977 31.0257 48.4322 30.1894C49.2685 26.7885 49.3242 23.1925 48.5437 19.6522Z" fill="#00934B"/>
<path d="M41.6303 18.9832L39.2609 19.9031L37.1701 20.7115L35.5255 21.3526C36.2781 23.5827 36.2502 25.8965 35.5255 27.9872L37.1423 28.6283L39.233 29.4367L41.6025 30.3566C42.9126 26.7885 42.9963 22.8022 41.6303 18.9832Z" fill="#22D511"/>
<path d="M35.5534 21.3528L32.1247 22.6908L28.9468 23.9453C28.668 24.2519 28.5844 24.6979 28.7516 25.1161C28.8074 25.2276 28.8632 25.3391 28.9468 25.4227L32.1247 26.6493L35.5534 27.9873C36.2503 25.8966 36.3061 23.5829 35.5534 21.3528Z" fill="#BEF000"/>
<path d="M6.58997 30.9423L8.06741 30.3569C6.70148 26.5657 6.78511 22.5515 8.06741 18.9834L6.58997 18.398L4.66651 17.6453C2.43642 16.7533 1.54438 18.398 1.23774 19.2064C0.429331 22.5515 0.373579 26.0918 1.12624 29.5763C1.12624 29.5763 1.12624 29.5763 1.12624 29.6042C2.21341 32.3918 4.47138 31.7507 5.08466 31.5277L6.58997 30.9423Z" fill="#00934B"/>
<path d="M8.06739 30.3568L10.4369 29.4369L12.4997 28.6285L14.1444 27.9874C13.3917 25.7573 13.4196 23.4435 14.1444 21.3528L12.4997 20.7117L10.4369 19.9311L8.06739 19.0112C6.78508 22.5794 6.70145 26.5657 8.06739 30.3568Z" fill="#22D511"/>
<path d="M14.1723 27.9873L17.6011 26.6493L20.7511 25.4227C21.0299 25.1161 21.1135 24.6701 20.9463 24.2519C20.8905 24.1125 20.8069 24.001 20.7232 23.9174L17.5732 22.6908L14.1445 21.3528C13.4476 23.4714 13.4197 25.7851 14.1723 27.9873Z" fill="#BEF000"/>
<path d="M8.9873 32.531L7.53774 33.1722L6.03242 33.8412C6.03242 33.8412 3.38418 35.2629 4.61074 37.9947V38.0226C6.53419 41.0054 9.07093 43.4306 11.9701 45.2147C12.7227 45.5771 14.6183 46.1904 15.5661 43.8766L16.3745 42.0368L17.0156 40.5872C13.6148 38.9425 10.7156 36.1828 8.9873 32.531Z" fill="#00934B"/>
<path d="M18.967 36.183L19.6639 34.5941C17.6847 33.6184 16.0122 32.0016 14.9807 29.9109L13.3639 30.6078L11.329 31.4998L8.98735 32.5313C10.7157 36.183 13.6148 38.9428 17.0436 40.5596L18.075 38.218L18.967 36.183Z" fill="#22D511"/>
<path d="M19.6639 34.5662L21.1413 31.1932L22.5073 28.099C22.4794 27.6808 22.2285 27.2906 21.8104 27.1233C21.6989 27.0675 21.5595 27.0397 21.4201 27.0397L18.3258 28.4056L14.9528 29.883C16.0121 32.0016 17.6847 33.5906 19.6639 34.5662Z" fill="#BEF000"/>
<path d="M40.7383 16.8368L42.1879 16.1956L43.8047 15.4708L43.6653 15.4987C44.2507 15.22 46.2857 14.1049 45.1427 11.4288C43.1914 8.36241 40.571 5.88143 37.5604 4.06947C35.4418 2.9823 34.1316 5.46328 34.1316 5.46328L33.3232 7.33099L32.6821 8.78055C36.1108 10.3974 39.01 13.1571 40.7383 16.8368Z" fill="#00934B"/>
<path d="M30.7586 13.1292L30.0617 14.746C32.0409 15.7217 33.7135 17.3385 34.7728 19.4571L36.3896 18.7602L38.4246 17.8682L40.7383 16.8367C39.01 13.185 36.1108 10.3973 32.6821 8.78052L31.6506 11.1221L30.7586 13.1292Z" fill="#22D511"/>
<path d="M30.0617 14.7462L28.5843 18.1192L27.2183 21.2692C27.2462 21.6874 27.4971 22.0498 27.9152 22.217C28.0267 22.2728 28.1661 22.3007 28.3055 22.3007L31.4276 20.9347L34.8007 19.4573C33.7135 17.3387 32.0409 15.7498 30.0617 14.7462Z" fill="#BEF000"/>
<path d="M31.121 42.9011L30.5356 41.4237C26.7165 42.7896 22.7302 42.706 19.1621 41.4237L18.5767 42.9011L17.6289 45.3543C17.6289 45.3543 17.155 47.2777 19.9426 48.337C19.9984 48.3649 20.0541 48.3928 20.1099 48.3928C23.3156 49.0618 26.6887 49.0618 30.0059 48.3091C30.4798 48.1697 32.7935 47.445 31.9573 45.0197L31.121 42.9011Z" fill="#00934B"/>
<path d="M30.5636 41.4236L29.6436 39.0541L28.8352 36.9634L28.1941 35.3466C25.964 36.0992 23.6503 36.0713 21.5595 35.3466L20.9184 36.9634L20.11 39.0541L19.1901 41.4236C22.7582 42.7059 26.7445 42.7895 30.5636 41.4236Z" fill="#22D511"/>
<path d="M28.1662 35.3468L26.8281 31.918L25.6016 28.768C25.2949 28.4892 24.821 28.4056 24.4029 28.5729C24.2914 28.6286 24.1799 28.6844 24.0963 28.768L22.8697 31.918L21.5317 35.3468C23.6502 36.0437 25.9361 36.0995 28.1662 35.3468Z" fill="#BEF000"/>
<path d="M18.5489 6.41108L19.1343 7.88852C22.9534 6.52258 26.9397 6.60621 30.5078 7.86064L31.0932 6.3832L31.6786 4.87789C31.9016 4.26461 32.5428 1.97876 29.7552 0.919466C29.7273 0.919466 29.7273 0.89159 29.6994 0.89159C26.3821 0.222561 22.8976 0.222561 19.4688 1.03097C18.6883 1.28186 16.8485 2.1739 17.8241 4.54337L18.5489 6.41108Z" fill="#00934B"/>
<path d="M19.1343 7.88872L20.0542 10.2582L20.8626 12.321L21.5038 13.9657C23.7338 13.2131 26.0476 13.241 28.1383 13.9657L28.7794 12.321L29.5879 10.2582L30.5078 7.88872C26.9396 6.60642 22.9533 6.52279 19.1343 7.88872Z" fill="#22D511"/>
<path d="M21.5037 13.9657L22.8418 17.3945L24.0962 20.6002C24.4028 20.8511 24.8489 20.9348 25.2391 20.7675C25.3785 20.7117 25.49 20.6281 25.5736 20.5445L26.8002 17.3666L28.1383 13.9378C26.0475 13.2688 23.7338 13.213 21.5037 13.9657Z" fill="#BEF000"/>
<path d="M43.6653 33.7855L43.498 33.7297L42.1879 33.1443L40.7383 32.5032C39.1215 35.9319 36.3617 38.8032 32.6821 40.5594L33.3232 42.009L34.1316 43.8488C35.1909 46.4134 37.3653 45.4099 37.9228 45.0753C40.8498 43.2355 43.2472 40.8382 45.0591 38.0505C45.087 38.0227 45.087 37.9948 45.1149 37.939C46.3135 35.2072 44.2507 34.0642 43.6653 33.7855Z" fill="#00934B"/>
<path d="M40.7383 32.5033L38.3967 31.4719L36.3338 30.5798L34.7449 29.8829C33.7692 31.8621 32.1524 33.5068 30.0617 34.5383L30.7586 36.1272L31.6506 38.19L32.6821 40.5316C36.3338 38.8312 39.1215 35.9321 40.7383 32.5033Z" fill="#22D511"/>
<path d="M34.745 29.9107L31.3719 28.4333L28.3056 27.0952C28.1941 27.0952 28.0547 27.1231 27.9432 27.1788C27.6644 27.2903 27.4414 27.5134 27.3299 27.7921C27.2741 27.9036 27.2463 28.0151 27.2463 28.1545L28.5843 31.2209L30.0618 34.5939C32.1525 33.5346 33.7693 31.8899 34.745 29.9107Z" fill="#BEF000"/>
<path d="M96.1492 19.0281C97.8218 19.0281 99.4386 19.0281 101.195 19.0281C101.195 19.9202 101.195 20.7564 101.195 21.6206C103.035 19.6135 105.097 18.3591 107.801 18.3312C110.561 18.3033 112.652 19.4463 114.074 21.983C114.269 21.76 114.464 21.5927 114.603 21.3976C116.778 18.7215 119.649 17.9131 122.938 18.4985C126.088 19.056 128.318 21.6764 128.402 25.2445C128.541 29.9835 128.43 34.6946 128.43 39.5171C126.702 39.5171 124.945 39.5171 123.078 39.5171C123.05 39.1547 123.022 38.7924 123.022 38.43C123.022 35.0291 123.022 31.6003 123.022 28.1994C123.022 27.614 122.966 27.0286 122.91 26.4711C122.771 25.1888 122.269 24.1016 120.959 23.6834C119.565 23.2096 118.199 23.3489 117.028 24.3525C115.83 25.356 115.244 26.722 115.161 28.2273C115.021 31.1264 115.049 34.0255 114.994 36.9525C114.994 37.7888 114.994 38.653 114.994 39.5729C113.154 39.5729 111.398 39.5729 109.53 39.5729C109.53 35.8932 109.53 32.2693 109.53 28.6175C109.53 27.8928 109.474 27.1401 109.39 26.4153C109.251 25.133 108.666 24.0737 107.383 23.6834C105.99 23.2374 104.624 23.3211 103.453 24.3804C102.254 25.4954 101.697 26.945 101.669 28.5339C101.585 31.7118 101.613 34.8897 101.585 38.0676C101.585 38.5415 101.585 38.9875 101.585 39.545C99.7452 39.545 97.989 39.545 96.1492 39.545C96.1492 32.7711 96.1492 25.9693 96.1492 19.0281Z" fill="#00934B"/>
<path d="M152.794 30.569C147.637 30.569 142.535 30.569 137.406 30.569C137.629 32.8549 138.995 34.5275 141.03 35.1407C143.762 35.9491 145.908 35.1686 148.083 32.4367C149.532 33.1336 151.01 33.8584 152.599 34.639C151.01 37.3151 148.891 39.1549 145.908 39.9354C139.831 41.4965 133.949 38.2907 132.333 32.5204C130.632 26.4712 134.061 20.1433 139.859 18.6938C147.553 16.7146 153.797 22.3734 152.794 30.569ZM147.497 26.5549C147.163 24.3526 145.323 22.8752 142.842 22.8473C140.277 22.7916 138.214 24.2969 137.796 26.5549C141.03 26.5549 144.264 26.5549 147.497 26.5549Z" fill="#00934B"/>
<path d="M163.526 32.0741C165.45 25.3281 167.512 18.1639 169.352 11.39C169.798 9.77317 170.077 9.24352 171.638 9.21564C172.502 9.21564 173.645 9.18777 174.119 9.27139C175.457 9.4944 175.346 10.1913 176.07 12.7559C177.687 18.4705 179.332 24.213 180.949 29.9277C181.116 30.5131 181.311 31.0706 181.618 32.102C182.844 27.2516 183.959 22.875 185.074 18.4984C185.743 15.8781 186.468 13.2856 187.054 10.6373C187.305 9.4944 187.751 9.27139 188.698 9.24352C189.869 9.21564 191.068 9.27139 192.462 9.27139C191.653 12.1426 190.901 14.8188 190.148 17.4949C188.224 24.4082 186.245 31.3215 184.35 38.2627C184.071 39.2383 183.736 39.5728 182.816 39.6007C181.534 39.6007 180.252 39.5728 178.914 39.5728C176.767 31.9626 174.621 24.4082 172.391 16.4356C171.387 19.948 170.523 23.0701 169.659 26.1923C168.516 30.2343 167.373 34.3042 166.286 38.3742C166.035 39.2662 165.728 39.6286 164.864 39.6286C160.989 39.6565 161.129 39.6286 161.129 39.6286C158.843 31.5166 155.247 19.279 152.961 11.167C152.822 10.6373 152.682 10.1077 152.459 9.27139C154.048 9.27139 155.052 9.24352 156.501 9.27139C156.864 9.29927 157.616 9.57803 157.784 10.5258" fill="#00934B"/>
<path d="M63.4226 39.545C63.4226 29.5096 63.4226 19.6135 63.4226 9.60596C65.2903 9.60596 67.1301 9.60596 69.0814 9.60596C69.0814 17.8016 69.0814 25.9693 69.0814 34.2207C73.3744 34.2207 77.5279 34.2207 81.793 34.2207C81.793 36.0326 81.793 37.7609 81.793 39.545C75.6602 39.545 69.5832 39.545 63.4226 39.545Z" fill="#00934B"/>
<path d="M85.5563 39.5453C85.5563 32.7156 85.5563 25.9417 85.5563 19.0563C87.3683 19.0563 89.1244 19.0563 90.9364 19.0563C90.9364 25.8859 90.9364 32.6877 90.9364 39.5453C89.1523 39.5453 87.3961 39.5453 85.5563 39.5453Z" fill="#00934B"/>
<path d="M91.8284 12.4496C91.8563 14.373 90.2116 15.9899 88.2603 16.0177C86.3368 16.0456 84.6921 14.4288 84.6642 12.4775C84.6364 10.554 86.2811 8.9093 88.2045 8.9093C90.1837 8.9093 91.8284 10.554 91.8284 12.4496Z" fill="#00934B"/>
<path d="M96.1492 19.0281C97.8218 19.0281 99.4386 19.0281 101.195 19.0281C101.195 19.9202 101.195 20.7564 101.195 21.6206C103.035 19.6135 105.097 18.3591 107.801 18.3312C110.561 18.3033 112.652 19.4463 114.074 21.983C114.269 21.76 114.464 21.5927 114.603 21.3976C116.778 18.7215 119.649 17.9131 122.938 18.4985C126.088 19.056 128.318 21.6764 128.402 25.2445C128.541 29.9835 128.43 34.6946 128.43 39.5171C126.702 39.5171 124.945 39.5171 123.078 39.5171C123.05 39.1547 123.022 38.7924 123.022 38.43C123.022 35.0291 123.022 31.6003 123.022 28.1994C123.022 27.614 122.966 27.0286 122.91 26.4711C122.771 25.1888 122.269 24.1016 120.959 23.6834C119.565 23.2096 118.199 23.3489 117.028 24.3525C115.83 25.356 115.244 26.722 115.161 28.2273C115.021 31.1264 115.049 34.0255 114.994 36.9525C114.994 37.7888 114.994 38.653 114.994 39.5729C113.154 39.5729 111.398 39.5729 109.53 39.5729C109.53 35.8932 109.53 32.2693 109.53 28.6175C109.53 27.8928 109.474 27.1401 109.39 26.4153C109.251 25.133 108.666 24.0737 107.383 23.6834C105.99 23.2374 104.624 23.3211 103.453 24.3804C102.254 25.4954 101.697 26.945 101.669 28.5339C101.585 31.7118 101.613 34.8897 101.585 38.0676C101.585 38.5415 101.585 38.9875 101.585 39.545C99.7452 39.545 97.989 39.545 96.1492 39.545C96.1492 32.7711 96.1492 25.9693 96.1492 19.0281Z" fill="#00934B"/>
<path d="M152.794 30.569C147.637 30.569 142.535 30.569 137.406 30.569C137.629 32.8549 138.995 34.5275 141.03 35.1407C143.762 35.9491 145.908 35.1686 148.083 32.4367C149.532 33.1336 151.01 33.8584 152.599 34.639C151.01 37.3151 148.891 39.1549 145.908 39.9354C139.831 41.4965 133.949 38.2907 132.333 32.5204C130.632 26.4712 134.061 20.1433 139.859 18.6938C147.553 16.7146 153.797 22.3734 152.794 30.569ZM147.497 26.5549C147.163 24.3526 145.323 22.8752 142.842 22.8473C140.277 22.7916 138.214 24.2969 137.796 26.5549C141.03 26.5549 144.264 26.5549 147.497 26.5549Z" fill="#00934B"/>
<path d="M63.4226 39.545C63.4226 29.5096 63.4226 19.6135 63.4226 9.60596C65.2903 9.60596 67.1301 9.60596 69.0814 9.60596C69.0814 17.8016 69.0814 25.9693 69.0814 34.2207C73.3744 34.2207 77.5279 34.2207 81.793 34.2207C81.793 36.0326 81.793 37.7609 81.793 39.545C75.6602 39.545 69.5832 39.545 63.4226 39.545Z" fill="#00934B"/>
<path d="M85.5563 39.5453C85.5563 32.7156 85.5563 25.9417 85.5563 19.0563C87.3683 19.0563 89.1244 19.0563 90.9364 19.0563C90.9364 25.8859 90.9364 32.6877 90.9364 39.5453C89.1523 39.5453 87.3961 39.5453 85.5563 39.5453Z" fill="#00934B"/>
<path d="M91.8284 12.4496C91.8563 14.373 90.2116 15.9899 88.2603 16.0177C86.3368 16.0456 84.6921 14.4288 84.6642 12.4775C84.6364 10.554 86.2811 8.9093 88.2045 8.9093C90.1837 8.9093 91.8284 10.554 91.8284 12.4496Z" fill="#00934B"/>
<path d="M198.009 9.2157C197.256 9.2157 196.531 9.49446 196.002 10.0241C195.444 10.5538 195.138 11.2785 195.138 12.0591C195.11 13.6759 196.336 14.9582 197.925 14.9861C197.953 14.9861 197.953 14.9861 197.981 14.9861C198.678 14.9861 199.403 14.6794 199.932 14.1777C200.49 13.6201 200.824 12.8954 200.824 12.1427C200.824 10.5259 199.598 9.24357 198.009 9.2157Z" fill="#00934B"/>
<path d="M235.419 32.8547C232.436 36.3671 229.899 37.287 226.861 35.8653C224.491 34.7782 222.986 32.2693 223.293 30.0392H239.405V29.8998C239.377 29.5653 239.377 29.2587 239.349 28.9799C239.321 28.3945 239.294 27.837 239.238 27.3073C238.875 24.1016 237.482 21.4533 235.252 19.8365C233.021 18.2197 230.122 17.69 226.917 18.3591C222.624 19.2232 219.975 22.1502 219.055 27.0286C218.442 30.2622 219.083 33.4122 220.84 35.8932C222.512 38.2627 225.105 39.8238 228.115 40.2698C228.617 40.3534 229.119 40.3813 229.593 40.3813C233.523 40.3813 237.37 38.0954 238.931 34.6667L238.987 34.5552L235.502 32.8268L235.419 32.8547ZM223.516 26.4432C224.352 23.2653 226.582 21.7042 229.927 21.8993C232.603 22.0666 234.471 23.7392 234.889 26.4432H223.516Z" fill="#00934B"/>
<path d="M212.532 18.5823C211.055 19.1677 209.773 20.1433 208.713 21.5371V18.8053V18.638H207.543C207.041 18.638 206.567 18.638 206.121 18.638C205.563 18.638 205.229 18.7216 205.034 18.9447C204.839 19.1398 204.755 19.4743 204.755 20.004C204.783 24.3805 204.783 28.8407 204.783 33.1336C204.783 34.8898 204.783 36.6182 204.783 38.3744C204.783 38.5974 204.811 38.8483 204.811 39.0713C204.811 39.1828 204.839 39.2943 204.839 39.3779V39.5173H208.936V36.0049C208.936 33.4403 208.936 30.9314 208.936 28.3947C208.936 26.3876 209.661 24.6872 210.943 23.6279C212.226 22.5686 214.01 22.1783 215.961 22.5128C216.073 22.5407 216.184 22.5407 216.296 22.5407C216.351 22.5407 216.435 22.5407 216.491 22.5407H216.602L217.857 18.6659L217.717 18.6101C215.822 17.969 214.177 17.9411 212.532 18.5823Z" fill="#00934B"/>
<path d="M199.988 18.7494H195.946V39.5729H199.988V18.7494Z" fill="#00934B"/>
</g>
<defs>
<clipPath id="clip0_293_18855">
<rect width="240" height="48.4785" fill="white" transform="translate(0 0.406006)"/>
</clipPath>
</defs>
</svg>
